<svg xmlns="http://www.w3.org/2000/svg" width="800" height="250" viewBox="0 0 800 250"><path d="M169.395,238.444C355.179,194.682,550.269,181.931,740.58,198.6c-133.985-2.657-279.1,2.656-412.769,24.439-28.936,5.195-119.84,21.861-147.248,26.643a11.393,11.393,0,0,1-2.8.32C170.949,250,161.912,245.187,169.395,238.444ZM13.84,213.69v.02c-10.148-16.017,32.737-25.7,43.1-30.283a3.868,3.868,0,0,0,2.606-3.975C73.4,125.576,113.462,73.235,141.575,26.108,96.554,33.074,48.125,49.386,7.708,71.5c-2.194,1.574-6.6,2.479-7.66-.63-.784-5.628,8.307-12.082,12.969-15.21C67.148,23.531,139.263,3.421,202.367,3.933c4.055.1,9.13,2.637,9.208,7.163-.079,5.431-4.976,5.431-9.11,5.706-11.951.807-23.627,2.4-35.48,4.231-4.055.61-2.312,6.749-4.193,9.543C140.615,67.627,95.829,130.574,78,176.658c.216.728,1.724.453,2.488.275,14.889-3.148,28.133-6.218,42.748-7.084,1.037.018,2.6-.073,4.42-.165,7.875-.4,20.572-.794,16.386,7.741C102.98,188.464,61.153,195.843,23.322,217.39a8.353,8.353,0,0,1-1.745.181A9.868,9.868,0,0,1,13.84,213.69Zm264.5-7.084c-9.678-19.736,17.084-60.507,27.78-81.857-13.342,6.257-37.38,21.94-54.64,25.069-25.9,6.3-33.756-14.8-24.469-36.029.94-3.8,3.566-8.737,3.644-12.357-19.67,5.8-38.007,22.924-52.955,36.875-4.447,4.172-11.931,11.649-15.654,15.171a8.075,8.075,0,0,1-9.776,1.889,7.436,7.436,0,0,1-4.349-5.726,12.073,12.073,0,0,1,1.038-5.884,411.974,411.974,0,0,1,32.953-55.548,9.408,9.408,0,0,1,14.3-.964c3.566,3.621.705,8.56-1.607,11.964-3.389,5.274-10.227,15.978-11.892,18.556-.118.177-.372.551-.157.512,3.683-2.5,8.561-6.139,12.127-8.658l.058-.059c12.774-8.7,42.513-31.838,52.916-15.722,6.152,10.783-14.831,35.852-4.8,44.667,16.339,4.624,62.438-22.924,73.428-30.6,9.365-13.6,82.656-141.242,94.254-90.908-.411,2.105-1.273,4.486-3.272,5.451a3.729,3.729,0,0,1-2.637-.166,4.334,4.334,0,0,0-2.1-.306c-25.155,23.14-44.511,52.4-62.927,81.247-3.468,4.959,1.332,7.713,6.152,6.985,17.24-2.3,33.991-5.647,51.035-9.307a9.478,9.478,0,0,0,4.584-2.5c37.635-43.723,90.825-16.509,32.8,14.64-9.012,4.152-18.553,6.651-26.742,6.375a5.206,5.206,0,0,0-3.272.827c-20.473,33.668,32.6,13.912,48.841,2.538,41.534-22.924,35.127-22.156,60.655-61.943,1.038-1.79,2.527-3.01-.921-2.223-9.7,1.535-27.6,4.408-33.266,5.313-4.976,1.161-10.148-4.349-6.485-8.914,6.426-7.713,48.469-6.848,54.033-12.653,8.836-11.216,16.711-23.081,27.056-32.841,3.311-2.6,8.365-2.912,11.6-.138,3.526,2.853,2.762,8.264-.059,11.295-3.233,4.073-12.186,15.328-16.672,21.035-.654.7.072.654.731.608a4.066,4.066,0,0,1,.6-.017c18.827-.335,42.3-1.515,58.852,1.5,3.076-.2,6.269,3.837,2.919,6-1.876,1.056-4.141.8-6.353.553a23.581,23.581,0,0,0-3.051-.218c-21.315.61-42.9,1.3-63.867,5.628-6.583,6.966-73.722,101.258-38.379,88.094,19.866-10.468,35.832-20.858,55.639-34.848,13.675-15.761,32.11-35.183,53.778-34.651,29.642,2.656.8,38.351-2.684,23.278.549-3.345,6.6-9.209,1.763-11.747-13.028-1.358-60.361,42.266-37.811,51.2,30.68-2.066,62.81-25.639,92.9-43.27,20.2-31.838,40.24-64.088,66.179-91.4,4.917-4.585,13.969-2.5,14.243,5,.176,2.223-1.254,4.919-2.429,6.572-15.379,21.428-58.97,70.9-69.255,98.582,10.266-6.533,59.753-49.646,62.34-17.493-1.528,10.311-8.189,19.933-9.678,30.322-3.742,21.251,30.935,3.857,41.553-1.023,8.855-3.384,31.8-18,33.07-13.774-15.085,26.288-113.2,67.532-86.4-1.889.98-3.129,2.939-7.93,3.859-11.118-24.254,6.139-47.254,34-65.533,50.983-4.663,3.955-13.655.571-13.3-5.942,2.312-11.216,9.874-20.956,14.321-31.346-20.786,10.606-50.252,32.743-76.269,36.147-17.593,2.578-29.661-3.05-28.192-22.53C519,148.815,453.391,185.552,479.8,118.1c.1-1.476-1.8.059-2.547.453-22.334,12.967-75.329,53.109-93.157,18.378-3.566-14.4,11.99-28.138,4.291-26.23-15.634,3.6-31.052,6.926-47,9.74a2.694,2.694,0,0,0-2.175,3.345c2.39,13.715.039,27.627-5.486,40.318-7.05,16.67-24,48.646-42.208,48.649C287.159,212.753,282.729,210.921,278.342,206.606Zm47.43-81.345c-12.421,20.858-23.94,41.42-30.935,64.384-8.346,34.966,24.038-13.735,26.9-22.353,5.917-12.3,11.559-29.594,6.034-42.443-.265-.462-.528-.656-.79-.656C326.584,124.192,326.185,124.634,325.773,125.261Zm85.457-15.033c12.911.925,40.456-16.1,36.283-24.282a6.769,6.769,0,0,0-2.014-.279C435.421,85.666,414.463,102.633,411.23,110.228Z" transform="translate(0 0)"></path></svg>