<svg xmlns="http://www.w3.org/2000/svg" xmlns:xlink="http://www.w3.org/1999/xlink" width="1080" height="1080" viewBox="0 0 1080 1080"><defs><clipPath id="b"><rect width="1080" height="1080"/></clipPath></defs><g id="a" clip-path="url(#b)"><rect width="1080" height="1080" fill="#fff"/><path d="M-3952.32,419.535v.04c-20.3-32.035,65.474-51.4,86.2-60.567,3.644-1.141,5.172-4.369,5.212-7.95,27.7-107.752,107.83-212.434,164.058-306.687-90.042,13.931-186.9,46.556-267.736,90.79-4.387,3.149-13.2,4.958-15.32-1.259-1.568-11.255,16.613-24.164,25.939-30.421C-3845.7,39.216-3701.474-1-3575.266.019c8.111.2,18.26,5.273,18.417,14.325-.157,10.861-9.952,10.861-18.221,11.413-23.9,1.613-47.254,4.8-70.959,8.461-8.111,1.219-4.623,13.5-8.384,19.086-32.381,54.1-88.863,135.8-130.871,211.834a19.381,19.381,0,0,1,1.585,1.257c32.678,9.249,124.875-45.847,146.856-61.2,18.729-27.195,165.312-282.485,188.508-181.817-.823,4.211-2.546,8.973-6.543,10.9-1.694.753-3.505.211-5.274-.332a8.653,8.653,0,0,0-4.208-.613c-50.311,46.28-89.022,104.8-125.854,162.493-6.936,9.917,2.665,15.427,12.3,13.971,34.481-4.6,108.654-21.055,111.24-23.613,2.848-3.308-16.125,22.154-25.978,24.6-31.269,7.2-62.1,13.853-94,19.481-3.448.865-4.78,3.149-4.35,6.69,4.78,27.431.078,55.254-10.971,80.637-14.1,33.34-48,97.293-84.415,97.3-8.72,0-17.581-3.664-26.353-12.292-6.441-13.135-4.812-30.93,1.018-50.4-75.7,19.434-152.05,35.1-221.634,74.732a16.649,16.649,0,0,1-3.489.363A19.739,19.739,0,0,1-3952.32,419.535Zm334.44-179.624c-24.842,41.715-47.88,82.841-61.868,128.767-16.692,69.932,48.076-27.469,53.8-44.707,11.833-24.6,23.118-59.189,12.068-84.887-.531-.925-1.055-1.313-1.581-1.313C-3616.257,237.771-3617.055,238.655-3617.88,239.91ZM-3824,345.47c.432,1.457,3.448.906,4.977.552,29.779-6.3,56.266-12.436,85.5-14.168,2.073.037,5.2-.147,8.839-.33,6.157-.311,13.792-.621,20.3.136,13.724-33.682,35.374-69.163,47.2-92.772-26.683,12.515-74.76,43.881-109.281,50.138-15.452,3.756-25.006,1.689-30.271-2.594A592.426,592.426,0,0,0-3824,345.47Z" transform="translate(4254.168 297.846)"/><path d="M338.79,476.888c371.569-87.524,761.749-113.025,1142.369-79.692-267.97-5.313-558.2,5.313-825.539,48.878-57.873,10.39-239.68,43.722-294.5,53.286a22.786,22.786,0,0,1-5.6.641C341.9,500,323.824,490.375,338.79,476.888Z" transform="translate(-101.326 302)"/></g></svg>